HIERARCHY
ROOT Hips
{
  OFFSET 0.609881 101.725 1.33503
  CHANNELS 6 Xposition Yposition Zposition Zrotation Xrotation Yrotation
  JOINT Spine
  {
    OFFSET 0 10.1816 0.131521
    CHANNELS 6 Xposition Yposition Zposition Zrotation Xrotation Yrotation
    JOINT Spine1
    {
      OFFSET 0 10.0835 -1.0008
      CHANNELS 6 Xposition Yposition Zposition Zrotation Xrotation Yrotation
      JOINT Spine2
      {
        OFFSET 0 9.10001 -1.37342
        CHANNELS 6 Xposition Yposition Zposition Zrotation Xrotation Yrotation
        JOINT Neck
        {
          OFFSET 0 16.6717 -2.51617
          CHANNELS 6 Xposition Yposition Zposition Zrotation Xrotation Yrotation
          JOINT Head
          {
            OFFSET 0 9.61788 1.68501
            CHANNELS 6 Xposition Yposition Zposition Zrotation Xrotation Yrotation
            JOINT HeadTop_End
            {
              OFFSET 0 17.8152 2.58499
              CHANNELS 6 Xposition Yposition Zposition Zrotation Xrotation Yrotation
              End Site
              {
                OFFSET 0 0 0
              }
            }
            JOINT LeftEye
            {
              OFFSET 3.06756 6.40951 9.28355
              CHANNELS 6 Xposition Yposition Zposition Zrotation Xrotation Yrotation
              End Site
              {
                OFFSET 0 0 0
              }
            }
            JOINT RightEye
            {
              OFFSET -3.06755 6.4095 9.28355
              CHANNELS 6 Xposition Yposition Zposition Zrotation Xrotation Yrotation
              End Site
              {
                OFFSET 0 0 0
              }
            }
          }
        }
        JOINT LeftShoulder
        {
          OFFSET 4.57045 10.946 -2.62799
          CHANNELS 6 Xposition Yposition Zposition Zrotation Xrotation Yrotation
          JOINT LeftArm
          {
            OFFSET 10.5924 -0.524583 -2.23212
            CHANNELS 6 Xposition Yposition Zposition Zrotation Xrotation Yrotation
            JOINT LeftForeArm
            {
              OFFSET 27.8415 -8.94286e-05 3.74589e-05
              CHANNELS 6 Xposition Yposition Zposition Zrotation Xrotation Yrotation
              JOINT LeftHand
              {
                OFFSET 28.3288 -1.74407e-05 3.78045e-05
                CHANNELS 6 Xposition Yposition Zposition Zrotation Xrotation Yrotation
                JOINT LeftHandThumb1
                {
                  OFFSET 2.46614 -1.57505 2.68241
                  CHANNELS 6 Xposition Yposition Zposition Zrotation Xrotation Yrotation
                  JOINT LeftHandThumb2
                  {
                    OFFSET 3.2298 -1.86469 1.86468
                    CHANNELS 6 Xposition Yposition Zposition Zrotation Xrotation Yrotation
                    JOINT LeftHandThumb3
                    {
                      OFFSET 2.65257 -1.53149 1.53147
                      CHANNELS 6 Xposition Yposition Zposition Zrotation Xrotation Yrotation
                      End Site
                      {
                        OFFSET 1.95457 -1.1285 1.12849
                      }
                    }
                  }
                }
                JOINT LeftHandIndex1
                {
                  OFFSET 9.1093 -0.517083 2.26007
                  CHANNELS 6 Xposition Yposition Zposition Zrotation Xrotation Yrotation
                  JOINT LeftHandIndex2
                  {
                    OFFSET 3.67641 0 2.92425e-05
                    CHANNELS 6 Xposition Yposition Zposition Zrotation Xrotation Yrotation
                    JOINT LeftHandIndex3
                    {
                      OFFSET 2.88306 3.8512e-05 -4.27648e-05
                      CHANNELS 6 Xposition Yposition Zposition Zrotation Xrotation Yrotation
                      End Site
                      {
                        OFFSET 2.39272 3.70259e-05 3.35544e-05
                      }
                    }
                  }
                }
                JOINT LeftHandMiddle1
                {
                  OFFSET 9.5334 -3.3924e-05 1.3937e-05
                  CHANNELS 6 Xposition Yposition Zposition Zrotation Xrotation Yrotation
                  JOINT LeftHandMiddle2
                  {
                    OFFSET 3.69824 0 1.7917e-05
                    CHANNELS 6 Xposition Yposition Zposition Zrotation Xrotation Yrotation
                    JOINT LeftHandMiddle3
                    {
                      OFFSET 2.95092 -3.93761e-05 1.6448e-05
                      CHANNELS 6 Xposition Yposition Zposition Zrotation Xrotation Yrotation
                      End Site
                      {
                        OFFSET 2.8339 -3.89348e-05 0
                      }
                    }
                  }
                }
                JOINT LeftHandRing1
                {
                  OFFSET 9.10453 -0.0439395 -1.86508
                  CHANNELS 6 Xposition Yposition Zposition Zrotation Xrotation Yrotation
                  JOINT LeftHandRing2
                  {
                    OFFSET 3.15403 0 1.04257e-05
                    CHANNELS 6 Xposition Yposition Zposition Zrotation Xrotation Yrotation
                    JOINT LeftHandRing3
                    {
                      OFFSET 2.93767 -4.54586e-05 0
                      CHANNELS 6 Xposition Yposition Zposition Zrotation Xrotation Yrotation
                      End Site
                      {
                        OFFSET 2.64745 -4.98044e-05 0
                      }
                    }
                  }
                }
                JOINT LeftHandPinky1
                {
                  OFFSET 8.07778 -0.488668 -3.80607
                  CHANNELS 6 Xposition Yposition Zposition Zrotation Xrotation Yrotation
                  JOINT LeftHandPinky2
                  {
                    OFFSET 3.60003 0 -2.62388e-05
                    CHANNELS 6 Xposition Yposition Zposition Zrotation Xrotation Yrotation
                    JOINT LeftHandPinky3
                    {
                      OFFSET 2.11421 1.95383e-05 0
                      CHANNELS 6 Xposition Yposition Zposition Zrotation Xrotation Yrotation
                      End Site
                      {
                        OFFSET 1.97568 1.24057e-05 -4.43014e-05
                      }
                    }
                  }
                }
              }
            }
          }
        }
        JOINT RightShoulder
        {
          OFFSET -4.56997 10.9462 -2.62802
          CHANNELS 6 Xposition Yposition Zposition Zrotation Xrotation Yrotation
          JOINT RightArm
          {
            OFFSET -10.5928 -0.524798 -2.2321
            CHANNELS 6 Xposition Yposition Zposition Zrotation Xrotation Yrotation
            JOINT RightForeArm
            {
              OFFSET -27.8415 -3.30792e-05 1.16763e-05
              CHANNELS 6 Xposition Yposition Zposition Zrotation Xrotation Yrotation
              JOINT RightHand
              {
                OFFSET -28.3288 0 5.5816e-05
                CHANNELS 6 Xposition Yposition Zposition Zrotation Xrotation Yrotation
                JOINT RightHandPinky1
                {
                  OFFSET -8.07667 -0.488459 -3.80601
                  CHANNELS 6 Xposition Yposition Zposition Zrotation Xrotation Yrotation
                  JOINT RightHandPinky2
                  {
                    OFFSET -3.60003 3.96767e-05 5.08144e-05
                    CHANNELS 6 Xposition Yposition Zposition Zrotation Xrotation Yrotation
                    JOINT RightHandPinky3
                    {
                      OFFSET -2.11421 1.51379e-05 1.47938e-05
                      CHANNELS 6 Xposition Yposition Zposition Zrotation Xrotation Yrotation
                      End Site
                      {
                        OFFSET -1.97568 -1.8522e-05 0
                      }
                    }
                  }
                }
                JOINT RightHandRing1
                {
                  OFFSET -9.10359 -0.0439143 -1.86507
                  CHANNELS 6 Xposition Yposition Zposition Zrotation Xrotation Yrotation
                  JOINT RightHandRing2
                  {
                    OFFSET -3.15403 2.39973e-05 4.88512e-05
                    CHANNELS 6 Xposition Yposition Zposition Zrotation Xrotation Yrotation
                    JOINT RightHandRing3
                    {
                      OFFSET -2.93767 -4.16007e-05 -3.96606e-05
                      CHANNELS 6 Xposition Yposition Zposition Zrotation Xrotation Yrotation
                      End Site
                      {
                        OFFSET -2.64745 2.46082e-05 0
                      }
                    }
                  }
                }
                JOINT RightHandMiddle1
                {
                  OFFSET -9.5325 -1.63123e-05 1.67918e-05
                  CHANNELS 6 Xposition Yposition Zposition Zrotation Xrotation Yrotation
                  JOINT RightHandMiddle2
                  {
                    OFFSET -3.69824 1.5067e-05 -2.25455e-05
                    CHANNELS 6 Xposition Yposition Zposition Zrotation Xrotation Yrotation
                    JOINT RightHandMiddle3
                    {
                      OFFSET -2.95092 0 0
                      CHANNELS 6 Xposition Yposition Zposition Zrotation Xrotation Yrotation
                      End Site
                      {
                        OFFSET -2.8339 0 5.37877e-05
                      }
                    }
                  }
                }
                JOINT RightHandIndex1
                {
                  OFFSET -9.10828 -0.516789 2.26012
                  CHANNELS 6 Xposition Yposition Zposition Zrotation Xrotation Yrotation
                  JOINT RightHandIndex2
                  {
                    OFFSET -3.67641 1.92272e-05 3.23557e-05
                    CHANNELS 6 Xposition Yposition Zposition Zrotation Xrotation Yrotation
                    JOINT RightHandIndex3
                    {
                      OFFSET -2.88306 -4.96012e-05 4.0449e-05
                      CHANNELS 6 Xposition Yposition Zposition Zrotation Xrotation Yrotation
                      End Site
                      {
                        OFFSET -2.39272 2.68147e-05 2.80201e-05
                      }
                    }
                  }
                }
                JOINT RightHandThumb1
                {
                  OFFSET -2.46481 -1.57271 2.68263
                  CHANNELS 6 Xposition Yposition Zposition Zrotation Xrotation Yrotation
                  JOINT RightHandThumb2
                  {
                    OFFSET -3.22977 -1.86471 1.86472
                    CHANNELS 6 Xposition Yposition Zposition Zrotation Xrotation Yrotation
                    JOINT RightHandThumb3
                    {
                      OFFSET -2.65261 -1.53145 1.53145
                      CHANNELS 6 Xposition Yposition Zposition Zrotation Xrotation Yrotation
                      End Site
                      {
                        OFFSET -1.95458 -1.12846 1.12851
                      }
                    }
                  }
                }
              }
            }
          }
        }
      }
    }
  }
  JOINT LeftUpLeg
  {
    OFFSET 8.20778 -6.75171 -1.59956
    CHANNELS 6 Xposition Yposition Zposition Zrotation Xrotation Yrotation
    JOINT LeftLeg
    {
      OFFSET 0 -44.3705 0.284643
      CHANNELS 6 Xposition Yposition Zposition Zrotation Xrotation Yrotation
      JOINT LeftFoot
      {
        OFFSET 0 -44.4279 -2.98219
        CHANNELS 6 Xposition Yposition Zposition Zrotation Xrotation Yrotation
        JOINT LeftToeBase
        {
          OFFSET 0 -8.72867 10.7106
          CHANNELS 6 Xposition Yposition Zposition Zrotation Xrotation Yrotation
          End Site
          {
            OFFSET 0 -0.000676683 9.27814
          }
        }
      }
    }
  }
  JOINT RightUpLeg
  {
    OFFSET -8.2078 -6.75166 -1.59956
    CHANNELS 6 Xposition Yposition Zposition Zrotation Xrotation Yrotation
    JOINT RightLeg
    {
      OFFSET 0 -44.3705 0.286156
      CHANNELS 6 Xposition Yposition Zposition Zrotation Xrotation Yrotation
      JOINT RightFoot
      {
        OFFSET 0 -44.4277 -2.98379
        CHANNELS 6 Xposition Yposition Zposition Zrotation Xrotation Yrotation
        JOINT RightToeBase
        {
          OFFSET 0 -8.72867 10.7106
          CHANNELS 6 Xposition Yposition Zposition Zrotation Xrotation Yrotation
          End Site
          {
            OFFSET 0 -0.000676369 9.27812
          }
        }
      }
    }
  }
}
MOTION
Frames:	4
Frame Time:	0.0333333
0.609881 101.725 1.33503 -4.55182 -1.08317 10.045 9.23415e-06 10.1816 0.131521 3.42561 2.56627 -0.92846 2.5194e-07 10.0835 -1.0008 0.84562 1.62228 -2.30286 3.45749e-07 9.10001 -1.37342 0.25204 -2.93372 -2.27218 6.33429e-07 16.6717 -2.51617 -0.985434 -3.34731 -1.20895 -4.24232e-07 9.61788 1.68501 0.309615 -1.37016 -3.83417 -6.50824e-07 17.8152 2.58499 2.67117e-16 0 -9.93923e-17 3.06756 6.40951 9.28355 2.67117e-16 0 -9.93923e-17 -3.06755 6.4095 9.28355 2.67117e-16 0 -9.93923e-17 4.57045 10.946 -2.62799 2.95354 7.14878 -21.3258 10.5924 -0.524583 -2.23212 -76.825 -4.01301 2.60244 27.8415 -8.94286e-05 3.74589e-05 -0.000196011 -4.93389e-06 -36.3051 28.3288 -1.74407e-05 3.78045e-05 5.37572 17.9758 -21.7012 2.46614 -1.57505 2.68241 23.8637 29.9808 -2.96716 3.2298 -1.86469 1.86468 -12.003 -12.3035 15.8465 2.65257 -1.53149 1.53147 1.39422 7.6686 -11.4124 9.1093 -0.517083 2.26007 3.97824 0.563722 3.47145 3.67641 -6.93914e-06 2.92425e-05 -16.8021 -0.457595 2.42926 2.88306 3.8512e-05 -4.27648e-05 -3.85086 -0.0321879 0.174984 9.5334 -3.3924e-05 1.3937e-05 -16.3478 -1.57655 7.47731 3.69824 1.96136e-06 1.7917e-05 -27.0563 -1.01939 3.33272 2.95092 -3.93761e-05 1.6448e-05 -15.9795 -0.246238 1.84297 9.10453 -0.0439395 -1.86508 -34.1071 -3.78325 7.09893 3.15403 -6.55347e-06 1.04257e-05 -17.1626 -0.186238 2.02849 2.93767 -4.54586e-05 -6.86476e-06 -12.5827 0.0282149 1.24209 8.07778 -0.488668 -3.80607 -30.5052 -3.91584 13.4178 3.60003 -2.25222e-06 -2.62388e-05 -29.071 -0.874307 2.56689 2.11421 1.95383e-05 -2.86442e-06 -6.72238 -0.104721 1.52549 -4.56997 10.9462 -2.62802 5.37418 -0.358498 5.30343 -10.5928 -0.524798 -2.2321 73.9594 3.59016 -21.9759 -27.8415 -3.30792e-05 1.16763e-05 1.37276e-05 9.87138e-06 32.5166 -28.3288 -1.58142e-07 5.5816e-05 4.45417 26.0066 6.44712 -8.07667 -0.488459 -3.80601 44.5982 -5.49796 -9.02929 -3.60003 3.96767e-05 5.08144e-05 48.9529 -2.20398 -4.03699 -2.11421 1.51379e-05 1.47938e-05 43.2474 -2.05291 -1.61847 -9.10359 -0.0439143 -1.86507 40.6092 -4.70144 -7.38019 -3.15403 2.39973e-05 4.88512e-05 23.7772 -0.391852 -2.65139 -2.93767 -4.16007e-05 -3.96606e-05 20.2152 -0.193598 -0.142502 -9.5325 -1.63123e-05 1.67918e-05 22.8932 -2.4002 -7.78661 -3.69824 1.5067e-05 -2.25455e-05 37.9168 -1.75295 -4.15525 -2.95092 -3.11324e-07 -3.03403e-07 31.0377 -0.879113 -3.04671 -9.10828 -0.516789 2.26012 10.7727 -0.766966 0.968538 -3.67641 1.92272e-05 3.23557e-05 26.7015 -0.954629 -3.30606 -2.88306 -4.96012e-05 4.0449e-05 17.4329 -0.33584 -0.50519 -2.46481 -1.57271 2.68263 -17.6222 14.4241 -4.0026 -3.22977 -1.86471 1.86472 -13.3676 7.12793 -3.77255 -2.65261 -1.53145 1.53145 9.20404 -12.4145 9.53495 8.20778 -6.75171 -1.59956 3.59158 -22.479 0.412059 -4.11016e-07 -44.3705 0.284643 15.6581 63.4983 -11.9785 4.71639e-07 -44.4279 -2.98219 -1.49284 1.47728 0.255713 -2.96099e-06 -8.72867 10.7106 -6.67225e-07 -1.56719 -1.97344e-06 -8.2078 -6.75166 -1.59956 9.47532 -10.4554 -11.3029 8.43557e-08 -44.3705 0.286156 -1.97223 17.1841 1.94332 9.64458e-07 -44.4277 -2.98379 -4.99217 -7.29363 -5.51823 -2.36044e-06 -8.72867 10.7106 -1.42562e-06 -2.77317 -2.47056e-06 
0.818016 102.009 1.16576 -3.57895 -0.0201298 8.49433 9.23415e-06 10.1816 0.131521 2.84845 2.20503 -0.370365 2.5194e-07 10.0835 -1.0008 0.284497 1.31443 -1.25643 3.45749e-07 9.10001 -1.37342 -0.284079 -3.21167 -1.25537 6.33429e-07 16.6717 -2.51617 -0.732863 -2.90735 -1.34674 -4.24232e-07 9.61788 1.68501 0.842183 -0.443775 -4.25061 -6.50824e-07 17.8152 2.58499 1.0444e-16 0 1.2424e-17 3.06756 6.40951 9.28355 1.0444e-16 0 1.2424e-17 -3.06755 6.4095 9.28355 1.0444e-16 0 1.2424e-17 4.57045 10.946 -2.62799 2.2886 7.21846 -21.3275 10.5924 -0.524583 -2.23212 -78.323 -6.9661 5.8074 27.8415 -8.94286e-05 3.74589e-05 -0.000204089 -1.77692e-07 -32.694 28.3288 -1.74407e-05 3.78045e-05 -4.24546 24.8676 -13.2393 2.46614 -1.57505 2.68241 27.5227 29.2408 -3.38618 3.2298 -1.86469 1.86468 -13.7804 -6.93966 9.52642 2.65257 -1.53149 1.53147 2.24804 6.17791 -20.2465 9.1093 -0.517083 2.26007 0.581669 1.5124 4.04517 3.67641 -6.93914e-06 2.92425e-05 -17.0076 -0.466351 2.44831 2.88306 3.8512e-05 -4.27648e-05 -4.05649 -0.033621 0.195615 9.5334 -3.3924e-05 1.3937e-05 -17.9331 -1.78198 8.61112 3.69824 1.96136e-06 1.7917e-05 -27.035 -1.0181 3.33099 2.95092 -3.93761e-05 1.6448e-05 -15.9628 -0.245759 1.84136 9.10453 -0.0439395 -1.86508 -35.9314 -4.04833 7.36415 3.15403 -6.55347e-06 1.04257e-05 -16.9927 -0.181909 2.01218 2.93767 -4.54586e-05 -6.86476e-06 -12.4119 0.0302371 1.22521 8.07778 -0.488668 -3.80607 -31.2695 -4.03214 14.2896 3.60003 -2.25222e-06 -2.62388e-05 -29.0522 -0.873314 2.56529 2.11421 1.95383e-05 -2.86442e-06 -6.7036 -0.104343 1.52365 -4.56997 10.9462 -2.62802 5.45554 -0.324812 5.63001 -10.5928 -0.524798 -2.2321 72.6962 2.48758 -16.3142 -27.8415 -3.30792e-05 1.16763e-05 -1.12706e-05 8.28817e-08 33.3969 -28.3288 -1.58142e-07 5.5816e-05 3.63876 26.8536 4.86315 -8.07667 -0.488459 -3.80601 44.9827 -5.53605 -8.88473 -3.60003 3.96767e-05 5.08144e-05 48.9887 -2.20683 -4.03921 -2.11421 1.51379e-05 1.47938e-05 43.2832 -2.05558 -1.62087 -9.10359 -0.0439143 -1.86507 40.8303 -4.73075 -7.34708 -3.15403 2.39973e-05 4.88512e-05 23.8313 -0.393842 -2.65638 -2.93767 -4.16007e-05 -3.96606e-05 20.2697 -0.194967 -0.147745 -9.5325 -1.63123e-05 1.67918e-05 23.4573 -2.46459 -7.06412 -3.69824 1.5067e-05 -2.25455e-05 37.9304 -1.75397 -4.15619 -2.95092 -3.11324e-07 -3.03403e-07 31.0475 -0.879631 -3.04752 -9.10828 -0.516789 2.26012 10.9725 -0.773354 1.3215 -3.67641 1.92272e-05 3.23557e-05 26.7166 -0.955497 -3.30735 -2.88306 -4.96012e-05 4.0449e-05 17.448 -0.336297 -0.506629 -2.46481 -1.57271 2.68263 -17.8912 14.0431 -3.86794 -3.22977 -1.86471 1.86472 -13.1681 6.8921 -4.22348 -2.65261 -1.53145 1.53145 9.17832 -12.4547 9.78903 8.20778 -6.75171 -1.59956 0.393162 -27.7503 -1.12012 -4.11016e-07 -44.3705 0.284643 12.3031 57.0135 -6.41566 4.71639e-07 -44.4279 -2.98219 -3.44252 -1.31436 0.589023 -2.96099e-06 -8.72867 10.7106 1.23865e-06 -0.788939 -3.20668e-06 -8.2078 -6.75166 -1.59956 8.71362 -7.68243 -11.9908 8.43557e-08 -44.3705 0.286156 -2.35286 16.7333 1.92954 9.64458e-07 -44.4277 -2.98379 -4.55654 -9.14157 -3.28392 -2.36044e-06 -8.72867 10.7106 -1.78141e-06 -2.70727 2.67637e-06 
1.07303 101.776 1.01183 -2.42877 1.1364 6.11475 9.23415e-06 10.1816 0.131521 2.13622 1.74898 0.221734 2.5194e-07 10.0835 -1.0008 -0.0109882 1.18932 -0.0705137 3.45749e-07 9.10001 -1.37342 -0.540921 -3.31137 -0.0923965 6.33429e-07 16.6717 -2.51617 -1.09288 -3.09702 -1.31047 -4.24232e-07 9.61788 1.68501 0.957877 0.091843 -4.50157 -6.50824e-07 17.8152 2.58499 1.02498e-16 3.97569e-16 -0 3.06756 6.40951 9.28355 1.02498e-16 3.97569e-16 -0 -3.06755 6.4095 9.28355 1.02498e-16 3.97569e-16 -0 4.57045 10.946 -2.62799 0.22791 7.43965 -19.8994 10.5924 -0.524583 -2.23212 -77.4887 -10.5309 9.93241 27.8415 -8.94286e-05 3.74589e-05 -0.000200635 -1.85733e-06 -32.035 28.3288 -1.74407e-05 3.78045e-05 -18.2279 34.0346 -1.07687 2.46614 -1.57505 2.68241 31.3925 28.5464 -3.7754 3.2298 -1.86469 1.86468 -14.5149 1.42178 12.4007 2.65257 -1.53149 1.53147 1.74285 5.60514 -24.3706 9.1093 -0.517083 2.26007 -1.31074 2.68398 4.41529 3.67641 -6.93914e-06 2.92425e-05 -17.1327 -0.47171 2.45989 2.88306 3.8512e-05 -4.27648e-05 -4.18158 -0.0345234 0.20816 9.5334 -3.3924e-05 1.3937e-05 -18.4741 -1.85577 9.40085 3.69824 1.96136e-06 1.7917e-05 -27.0134 -1.0168 3.3292 2.95092 -3.93761e-05 1.6448e-05 -15.9469 -0.245287 1.83985 9.10453 -0.0439395 -1.86508 -36.5081 -4.13781 7.54793 3.15403 -6.55347e-06 1.04257e-05 -16.9272 -0.180251 2.0059 2.93767 -4.54586e-05 -6.86476e-06 -12.3461 0.0310092 1.21869 8.07778 -0.488668 -3.80607 -31.2404 -4.03027 14.4465 3.60003 -2.25222e-06 -2.62388e-05 -29.0835 -0.874976 2.56793 2.11421 1.95383e-05 -2.86442e-06 -6.73487 -0.104978 1.52674 -4.56997 10.9462 -2.62802 3.84607 -0.352563 6.41929 -10.5928 -0.524798 -2.2321 72.7418 1.61893 -10.6662 -27.8415 -3.30792e-05 1.16763e-05 -4.47643e-06 8.04379e-07 33.8655 -28.3288 -1.58142e-07 5.5816e-05 3.46846 26.362 3.63248 -8.07667 -0.488459 -3.80601 45.521 -5.58721 -8.66294 -3.60003 3.96767e-05 5.08144e-05 48.9242 -2.20172 -4.03524 -2.11421 1.51379e-05 1.47938e-05 43.2187 -2.05074 -1.61654 -9.10359 -0.0439143 -1.86507 41.1868 -4.77924 -7.31527 -3.15403 2.39973e-05 4.88512e-05 23.9072 -0.396623 -2.66337 -2.93767 -4.16007e-05 -3.96606e-05 20.3462 -0.196896 -0.15513 -9.5325 -1.63123e-05 1.67918e-05 24.0571 -2.53224 -6.29136 -3.69824 1.5067e-05 -2.25455e-05 37.9419 -1.75482 -4.15698 -2.95092 -3.11324e-07 -3.03403e-07 31.0543 -0.879996 -3.0481 -9.10828 -0.516789 2.26012 11.2725 -0.789788 1.6562 -3.67641 1.92272e-05 3.23557e-05 26.6413 -0.951152 -3.30102 -2.88306 -4.96012e-05 4.0449e-05 17.3727 -0.334024 -0.499398 -2.46481 -1.57271 2.68263 -17.5726 14.0125 -3.22941 -3.22977 -1.86471 1.86472 -13.204 6.33641 -4.65928 -2.65261 -1.53145 1.53145 9.15579 -12.4904 10.0165 8.20778 -6.75171 -1.59956 -1.6945 -31.1647 -2.00954 -4.11016e-07 -44.3705 0.284643 8.79762 47.4615 -1.6132 4.71639e-07 -44.4279 -2.98219 -3.60318 -2.18363 0.679684 -2.96099e-06 -8.72867 10.7106 -1.87342e-06 -0.131233 9.01291e-06 -8.2078 -6.75166 -1.59956 7.31471 -5.18306 -12.5489 8.43557e-08 -44.3705 0.286156 -2.50889 17.0126 3.07442 9.64458e-07 -44.4277 -2.98379 -4.0761 -12.302 -0.724505 -2.36044e-06 -8.72867 10.7106 1.423e-06 -2.41122 -1.85207e-07 
1.35611 101.257 0.955328 -1.00742 2.10462 3.30991 9.23415e-06 10.1816 0.131521 1.5408 1.3915 0.668164 2.5194e-07 10.0835 -1.0008 -0.532573 1.07568 0.817554 3.45749e-07 9.10001 -1.37342 -1.02527 -3.41084 0.777453 6.33429e-07 16.6717 -2.51617 -1.49422 -3.4744 -1.12995 -4.24232e-07 9.61788 1.68501 0.789322 0.208586 -4.09061 -6.50824e-07 17.8152 2.58499 2.32951e-16 -7.95139e-16 -0 3.06756 6.40951 9.28355 2.32951e-16 -7.95139e-16 -0 -3.06755 6.4095 9.28355 2.32951e-16 -7.95139e-16 -0 4.57045 10.946 -2.62799 -2.05558 7.59637 -16.6929 10.5924 -0.524583 -2.23212 -75.5616 -13.6334 14.2885 27.8415 -8.94286e-05 3.74589e-05 -0.000212771 2.21337e-06 -32.0269 28.3288 -1.74407e-05 3.78045e-05 -33.8227 41.7128 14.3428 2.46614 -1.57505 2.68241 34.9235 27.9419 -4.23757 3.2298 -1.86469 1.86468 -13.6981 1.50509 16.3248 2.65257 -1.53149 1.53147 2.35535 5.3846 -26.1187 9.1093 -0.517083 2.26007 1.0822 4.21831 3.53034 3.67641 -6.93914e-06 2.92425e-05 -17.4674 -0.486173 2.49079 2.88306 3.8512e-05 -4.27648e-05 -4.51668 -0.0370871 0.241767 9.5334 -3.3924e-05 1.3937e-05 -15.4165 -1.47742 8.94696 3.69824 1.96136e-06 1.7917e-05 -26.9131 -1.01078 3.32098 2.95092 -3.93761e-05 1.6448e-05 -15.8453 -0.242332 1.83018 9.10453 -0.0439395 -1.86508 -33.6719 -3.74863 7.57045 3.15403 -6.55347e-06 1.04257e-05 -16.9807 -0.181596 2.011 2.93767 -4.54586e-05 -6.86476e-06 -12.3998 0.0303765 1.22403 8.07778 -0.488668 -3.80607 -28.7393 -3.6772 13.5028 3.60003 -2.25222e-06 -2.62388e-05 -29.294 -0.886256 2.58577 2.11421 1.95383e-05 -2.86442e-06 -6.94567 -0.109282 1.54743 -4.56997 10.9462 -2.62802 2.22435 -0.355535 7.9373 -10.5928 -0.524798 -2.2321 73.0913 1.92895 -5.46522 -27.8415 -3.30792e-05 1.16763e-05 -3.53525e-07 -3.28227e-06 33.9955 -28.3288 -1.58142e-07 5.5816e-05 3.81045 24.5935 3.17132 -8.07667 -0.488459 -3.80601 46.102 -5.63808 -8.34704 -3.60003 3.96767e-05 5.08144e-05 48.8431 -2.1953 -4.0302 -2.11421 1.51379e-05 1.47938e-05 43.1376 -2.04468 -1.61109 -9.10359 -0.0439143 -1.86507 41.7738 -4.85562 -7.19567 -3.15403 2.39973e-05 4.88512e-05 23.9398 -0.397807 -2.66639 -2.93767 -4.16007e-05 -3.96606e-05 20.3797 -0.197752 -0.158345 -9.5325 -1.63123e-05 1.67918e-05 24.746 -2.61098 -5.53067 -3.69824 1.5067e-05 -2.25455e-05 37.949 -1.75535 -4.15749 -2.95092 -3.11324e-07 -3.03403e-07 31.0572 -0.880147 -3.04836 -9.10828 -0.516789 2.26012 11.8593 -0.840149 1.83319 -3.67641 1.92272e-05 3.23557e-05 26.4397 -0.939559 -3.28404 -2.88306 -4.96012e-05 4.0449e-05 17.1709 -0.328002 -0.480002 -2.46481 -1.57271 2.68263 -17.063 14.0142 -2.25363 -3.22977 -1.86471 1.86472 -13.291 5.79414 -5.14465 -2.65261 -1.53145 1.53145 9.13763 -12.5197 10.2035 8.20778 -6.75171 -1.59956 -2.86359 -33.3042 -1.64737 -4.11016e-07 -44.3705 0.284643 6.20886 35.868 1.38195 4.71639e-07 -44.4279 -2.98219 -2.52998 -2.09829 0.526003 -2.96099e-06 -8.72867 10.7106 1.16275e-06 -0.230126 6.41887e-06 -8.2078 -6.75166 -1.59956 5.36047 -2.52455 -13.3491 8.43557e-08 -44.3705 0.286156 -2.63995 17.3766 6.57293 9.64458e-07 -44.4277 -2.98379 -3.37815 -15.7335 -0.538139 -2.36044e-06 -8.72867 10.7106 -1.60498e-06 -2.39252 9.72632e-07 
